<?xml version="1.0" encoding="UTF-8" standalone="no"?>
<!-- Created with Inkscape (http://www.inkscape.org/) -->

<svg
   xmlns:dc="http://purl.org/dc/elements/1.1/"
   xmlns:cc="http://creativecommons.org/ns#"
   xmlns:rdf="http://www.w3.org/1999/02/22-rdf-syntax-ns#"
   xmlns:svg="http://www.w3.org/2000/svg"
   xmlns="http://www.w3.org/2000/svg"
   xmlns:sodipodi="http://sodipodi.sourceforge.net/DTD/sodipodi-0.dtd"
   xmlns:inkscape="http://www.inkscape.org/namespaces/inkscape"
   version="1.1"
   id="svg3713"
   width="800"
   height="457"
   viewBox="0 0 800 457"
   sodipodi:docname="logo.svg"
   inkscape:version="0.92.4 (5da689c313, 2019-01-14)">
  <metadata
     id="metadata3719">
    <rdf:RDF>
      <cc:Work
         rdf:about="">
        <dc:format>image/svg+xml</dc:format>
        <dc:type
           rdf:resource="http://purl.org/dc/dcmitype/StillImage" />
        <dc:title></dc:title>
      </cc:Work>
    </rdf:RDF>
  </metadata>
  <defs
     id="defs3717">
    <inkscape:path-effect
       effect="bend_path"
       id="path-effect5157"
       is_visible="true"
       bendpath="M 309.80885,267.07796 H 574.43073"
       prop_scale="1"
       scale_y_rel="false"
       vertical="false" />
    <inkscape:path-effect
       effect="spiro"
       id="path-effect5155"
       is_visible="true" />
    <inkscape:path-effect
       effect="sketch"
       id="path-effect4753"
       is_visible="true"
       nbiter_approxstrokes="6"
       strokelength="47"
       strokelength_rdm="0.4;1"
       strokeoverlap="0.3"
       strokeoverlap_rdm="0.3;1"
       ends_tolerance="0.1;1"
       parallel_offset="3.8;1"
       tremble_size="4;1"
       tremble_frequency="1.01"
       nbtangents="11"
       tgt_places_rdmness="1;1"
       tgtscale="10"
       tgtlength="49"
       tgtlength_rdm="0.3;1" />
    <inkscape:path-effect
       effect="rough_hatches"
       id="path-effect4751"
       is_visible="true"
       direction="442.11979,262.07797 , 66.15547,0"
       dist_rdm="75;1"
       growth="0"
       do_bend="true"
       bender="442.11979,267.07797 , 5,0"
       bottom_edge_variation="30.754497;1"
       top_edge_variation="30.754497;1"
       bottom_tgt_variation="0;1"
       top_tgt_variation="0;1"
       scale_bf="1"
       scale_bb="1"
       scale_tf="1"
       scale_tb="1"
       top_smth_variation="0;1"
       bottom_smth_variation="0;1"
       fat_output="true"
       stroke_width_top="1"
       stroke_width_bottom="1"
       front_thickness="1"
       back_thickness="0.25" />
    <filter
       style="color-interpolation-filters:sRGB;"
       inkscape:label="Colorize"
       id="filter6065">
      <feComposite
         in2="SourceGraphic"
         operator="arithmetic"
         k1="2.76042"
         k2="1.3"
         result="composite1"
         id="feComposite6051" />
      <feColorMatrix
         in="composite1"
         values="1"
         type="saturate"
         result="colormatrix1"
         id="feColorMatrix6053" />
      <feFlood
         flood-opacity="1"
         flood-color="rgb(0,38,132)"
         result="flood1"
         id="feFlood6055" />
      <feBlend
         in="flood1"
         in2="colormatrix1"
         mode="screen"
         result="blend1"
         id="feBlend6057" />
      <feBlend
         in2="blend1"
         mode="screen"
         result="blend2"
         id="feBlend6059" />
      <feColorMatrix
         in="blend2"
         values="1"
         type="saturate"
         result="colormatrix2"
         id="feColorMatrix6061" />
      <feComposite
         in="colormatrix2"
         in2="SourceGraphic"
         operator="in"
         k2="1"
         result="composite2"
         id="feComposite6063" />
    </filter>
  </defs>
  <sodipodi:namedview
     pagecolor="#ffffff"
     bordercolor="#666666"
     borderopacity="1"
     objecttolerance="10"
     gridtolerance="10"
     guidetolerance="10"
     inkscape:pageopacity="0"
     inkscape:pageshadow="2"
     inkscape:window-width="1920"
     inkscape:window-height="986"
     id="namedview3715"
     showgrid="false"
     inkscape:zoom="1.1805743"
     inkscape:cx="245.97129"
     inkscape:cy="235.03277"
     inkscape:window-x="-11"
     inkscape:window-y="-11"
     inkscape:window-maximized="1"
     inkscape:current-layer="svg3713" />
  <g
     inkscape:groupmode="layer"
     id="layer1"
     inkscape:label="Layer 1" />
  <g
     inkscape:groupmode="layer"
     id="layer2"
     inkscape:label="Layer 2" />
  <g
     id="g3820"
     transform="translate(1.2269159,5.1175312)"
     style="filter:url(#filter6065)">
    <path
       inkscape:connector-curvature="0"
       id="path3737"
       d="M 367.71887,413.34174 C 324.9095,400.9027 273.50488,395.79558 245.61564,356.41561 172.69134,275.35218 172.71666,138.11421 249.62122,59.597753 284.56404,20.327645 337.90175,-0.06623431 390.07448,3.9459155 c 52.6382,3.9964696 104.01946,27.0134885 142.01478,63.6188825 36.38821,36.104912 56.17543,87.270822 55.29324,138.343912 4.23798,55.06325 -24.64702,107.02962 -60.94397,146.28869 -30.74629,26.95691 -74.18583,21.85153 -112.04112,23.84475 -15.20091,-7.89442 -42.1055,-1.60386 -29.40484,20.14377 1.37302,9.72015 -7.44762,18.79676 -17.2737,17.15582 z m -3.5,-4.94393 c 0.23362,-5.56691 -3.54673,3.28195 0,0 z m 124.02757,-37.42525 c 18.76912,-5.38023 40.91391,-25.70433 46.55534,-38.70217 -14.50967,11.09259 -28.85145,22.71692 -42.97511,34.34863 l -1.85463,2.11835 z m -84.38868,-1.81176 c 19.0983,-11.00924 52.03906,-9.87907 61.84,-29.7764 -6.65636,-6.43239 -39.34014,5.87125 -26.60326,-9.16257 32.12464,-4.17786 54.87161,-31.55873 65.78094,-60.2979 11.30603,-28.38246 22.04382,-58.85927 19.52293,-89.83237 -4.87304,-49.77886 -41.96301,-99.004072 -93.48239,-105.936198 -44.77121,-0.962381 -95.38073,1.647888 -129.26419,34.945148 -25.15732,22.93254 -40.10351,56.9012 -36.42439,91.15052 2.25457,27.18092 12.09634,55.93389 35.34636,72.11694 19.61609,16.66331 42.57707,34.25897 47.43631,61.19045 -9.34296,23.38603 19.82421,32.14836 37.521,33.68134 6.08274,0.9111 12.1726,1.75046 18.32669,1.92104 z m -6.63889,-11.32201 c 4.42625,-6.91863 4.00612,7.30437 0,0 z m 12,-0.0568 c 6.32351,-6.77473 6.35698,7.76114 0,0 z m -20.25,-0.6055 c 1.89231,-5.44248 3.11051,3.71154 0,0 z m 32.25,-0.19421 c 6.10135,-9.47082 10.44277,8.05719 0,0 z m -55.95458,-1.58877 c 1.50274,-8.31419 4.79685,6.80113 0,0 z m 70.95458,-0.93809 c 2.34359,-5.41536 3.49168,5.11317 0,0 z m 13,-3.00964 c 1.51128,-5.10203 2.93797,4.1543 0,0 z m -2,-4.91913 c 3.64526,-11.01349 10.09364,7.57056 0,0 z m -28.32108,-17.76678 c 7.18887,-9.26059 8.97376,8.73437 0,0 z m 31.32108,-6.92108 c 2.35995,-4.80899 1.74835,4.9059 0,0 z m -103.75,-10.09249 c -8.66155,-11.56026 13.97145,9.29087 0.11387,0.0756 z m 31.25,-3.90751 c 2.46757,-4.14224 0.40478,6.04484 0,0 z m -40.5,-8 c 2.24868,-5.13067 1.37835,4.80778 0,0 z m 125,-3 c 2.24868,-5.13067 1.37835,4.80778 0,0 z m -171.8,-32.2 c -10.95314,-6.15007 7.37382,-0.42952 0,0 z m 0.94286,-6.94286 c -8.38055,-9.93783 5.46526,2.76792 0,0 z M 497.38472,234.7785 c -2.09078,-8.53973 4.72004,-1.63603 1.52775,1.37613 z m 18.73231,-15.28996 c -6.82746,-12.83255 11.78344,1.93193 0,0 z m -247.89816,-7.14975 c 0.88826,-7.05753 2.33467,5.00061 0,0 z m 247.11739,-29.75 c -12.19196,-10.67141 11.00901,-6.02023 0,0 z m -15.67225,-40.32794 c -9.68346,-4.81462 -9.73066,-22.8081 1.17438,-9.38387 3.89595,2.36138 5.73278,10.53736 -1.17438,9.38387 z m -18.79248,-28.48064 c -10.893,-6.84496 8.89856,0.73381 0,0 z m -8.92482,-9.01422 c -9.76376,-10.753573 11.21914,5.83464 0,0 z M 340.21887,94.472783 c 8.24395,-12.788326 15.50927,7.045627 0,0 z m 24.1875,-10.69649 c -2.55062,-7.653857 5.19765,0.840848 0,0 z m 1.8125,282.621517 c 0.23362,-5.56691 -3.54673,3.28195 0,0 z m -27,-20.13234 c -4.03349,-4.86979 -0.81862,6.35418 0,0 z m 148.5,-12.42668 c -3.18068,-3.58363 -4.07963,10.63447 0,0 z m -1.11803,-3.97097 c 12.99008,-6.6436 1.30966,-7.56536 -2.96384,0.20798 0.98795,-0.0693 1.97589,-0.13865 2.96384,-0.20798 z M 224.99933,315.58879 c 0.84844,-13.41446 -11.07499,-3.74668 0,0 z m 330.21954,-8.48772 c 6.83984,-17.37583 -10.17275,11.74939 0,0 z m -256,-30.76228 c -5.47858,-3.63411 4.70565,6.83487 0,0 z m 244,-4.59106 c -5.33844,-1.92495 2.06209,5.301 0,0 z m -5.01531,-0.71796 c -6.14116,2.72741 6.01759,7.17521 0,0 z m 9.5613,-11.44098 c 12.7379,-13.98141 11.92213,-46.24303 8.17957,-55.58064 -4.39247,18.25528 -2.37812,37.46596 -8.17957,55.58064 z m -6.63159,1.75 c -5.48008,1.8429 4.49208,4.09927 0,0 z m 6.01531,-22.41667 c -4.99357,2.1093 3.99243,8.84785 0,0 z m 1.95198,-13 c -5.43314,5.16858 7.87968,10.18184 0,0 z m 2.08764,-26.03995 c -3.38382,-15.25286 -1.35088,18.33268 -0.0383,0.54878 z m -294.70165,-3.82068 -0.14213,1.20083 z m 274.76412,6.5273 c 14.30178,-23.11459 -15.4873,2.51892 0,0 z m 5.97816,-19.45765 c 6.93366,-12.632 -9.36395,8.50703 0,0 z m 11.49709,-3.26027 c -0.95288,-14.4014 -10.0949,5.00133 0,0 z m 6.72431,-1.60211 c -2.34886,-12.26926 -1.84085,6.11832 0,0 z M 262.17377,162.88879 c -7.4595,2.73824 3.39536,8.72925 0,0 z m 291.0451,3.00902 c 0.84676,-6.7473 -4.05111,3.69622 0,0 z m -8.18664,-7.23201 c 0.92662,-13.82243 -3.87521,6.1408 0,0 z m 4.49854,-2.48611 c -7.23062,1.9091 10.29169,5.6588 0,0 z m -8.85742,-11.70879 c -8.22061,-23.3783 -2.2568,12.76103 0,0 z m 6.09464,3.11789 c 3.85514,-13.87427 -12.82728,-11.50682 0,0 z m -10.008,-23.68347 c -1.54596,-10.09588 -3.03891,4.51493 0,0 z m -8.99073,-4.96909 c -4.20072,-18.86783 -10.09728,-0.98862 0,0 z m -6.55039,-10.35689 c 5.73965,-12.959052 -10.36158,-0.71501 0,0 z m -24,-3.61798 c 0.6779,-14.367078 -30.50451,-18.809274 -10.05766,-3.84392 3.16298,1.7261 6.58745,2.91326 10.05766,3.84392 z m 8.5,-13.122567 c -3.22458,-10.912027 -6.69222,-1.136331 0,0 z m 42.5,0.38398 c -1.91031,-13.313054 -13.47516,-3.521613 0,0 z m -15.15812,-19.38398 c -2.08191,-7.839396 -6.38248,-3.102707 0,0 z M 448.22483,68.34597 c -5.66839,-9.139144 -10.27653,5.900628 0,0 z m 75.99404,-1.94816 c 0.23361,-5.566899 -3.54672,3.281963 0,0 z M 416.78113,63.738049 c 6.78197,3.120571 7.79583,-3.346365 0,0 z m 78.13198,-23.430857 c -4.87719,-9.626757 -3.89991,2.509068 -0.0127,0.195273 z M 327.71887,11.838793 c -6.53985,-2.7185514 1.58094,7.979649 0,0 z m 10,394.999997 c 2.03327,-8.00353 3.41111,5.15793 0,0 z m 59.13874,-16.47107 c -0.50445,-9.4567 6.83712,9.14095 0,0 z m 21.36126,0.53846 c -15.63328,-0.0475 5.44238,-5.54688 0,0 z m 11,-1.06739 c 1.76101,-6.38628 3.64018,4.99622 0,0 z m -23,-1 c 2.24868,-5.13067 1.37835,4.80778 0,0 z m 30.59107,0.14735 c 3.46507,-7.15753 5.35908,5.91929 0,0 z m 12.87789,-3.19757 c -1.30826,-5.42539 4.34929,3.77967 0,0 z m -42.21896,-1.61206 c 5.29459,-10.67462 8.77939,9.18406 0,0 z m 54.75,-1.26154 c 4.21228,-8.61915 5.76405,7.586 0,0 z m -35,-1.55713 c 6.79775,-10.09813 8.29192,9.98076 0,0 z m 30.5,-6.51905 c 1.01149,-7.57185 4.35351,3.70607 0,0 z m 111.5,-80.5 c 0.88826,-7.05753 2.33467,5.00061 0,0 z m 15.39268,-45.91908 c -8.57595,-9.51709 9.32657,-2.72733 0,0 z M 187.21887,178.42058 c -6.18024,-8.515 6.40666,-0.32072 0,0 z m 2.53262,-16.529 c -8.76724,-16.36731 18.72428,-6.35703 0,0 z m 8.96738,-28.05279 c 0.22711,-6.1227 2.51788,3.64789 0,0 z m 7.96651,-20.75 c -1.01343,-20.147179 16.46316,-2.46669 0,0 z m 31.53349,-46.249997 c 0.81264,-5.688633 2.01552,3.997434 0,0 z m 237.25,-38.174897 c -3.77058,-8.213637 10.30154,9.216536 0,0 z m -189.25,-0.718114 c -1.25485,-10.391955 5.84123,3.49139 0,0 z M 437.86953,8.370818 c 0.96438,-7.50457351 2.97474,5.855947 0,0 z M 399.21887,0.838793 c 3.63551,-5.3367254 2.05484,6.0875982 0,0 z"
       style="fill:#d0d0d0" />
    <path
       inkscape:connector-curvature="0"
       id="path3735"
       d="m 365.37757,406.83879 c -60.18769,-0.73665 -122.42656,-34.79519 -146.43324,-91.42735 6.26615,3.38804 18.31183,14.28695 7.87327,0.65588 C 179.66628,252.69888 183.47392,161.84182 224.1868,96.283761 256.53811,41.980126 317.16047,2.2182822 381.74074,5.7382972 477.82745,8.4502587 570.1538,82.964204 584.46548,179.52371 c 5.87852,51.46552 -5.54901,109.09746 -45.37335,145.09095 -26.93919,39.17931 -77.61608,49.95134 -122.28903,50.46927 -15.29355,0.7028 -51.17526,-9.79555 -34.47918,16.66917 6.11211,14.00616 -3.27869,21.4624 -16.94635,15.08569 z m -60.59642,-16.89923 c -9.79045,-14.85445 -22.59726,1.27543 0,0 z m 114.88772,-19.22882 c 21.98629,-20.87797 57.51773,-17.85351 77.93168,-41.00921 7.01321,-6.53597 1.40209,-21.50498 -6.08796,-9.72775 -8.58372,-21.38304 10.66196,-43.17648 19.79188,-61.64919 14.33211,-15.26699 7.60208,-42.20746 18.16777,-55.64115 18.85955,12.60188 11.28541,37.42426 5.5069,55.10778 -1.88966,8.66484 -15.20262,40.14588 -5.03379,16.89075 7.55801,-14.9459 10.94021,-36.42539 16.80208,-48.91908 0.8839,16.56445 -16.81462,38.20479 -6.62625,50.93296 19.68298,-30.32332 22.8508,-69.51356 16.07499,-104.48702 -6.55821,-32.17398 -23.91817,-62.68506 -50.52298,-82.384918 7.00695,26.776428 -28.20556,-2.159722 -36.42833,-9.620897 -22.57071,-16.482679 -53.558,-17.853062 -78.46197,-5.853876 -23.41003,10.651044 -51.56162,1.073562 -71.92055,20.061568 -36.63473,24.211733 -69.42881,65.619313 -63.4926,111.943393 -0.2524,-10.94221 9.97886,-42.95245 6.24925,-14.59441 -0.878,40.17717 21.61264,83.06593 60.80978,97.07286 22.7853,17.48666 11.20588,51.83552 29.46933,71.70754 19.16798,11.2025 46.31733,14.73803 67.77077,10.17065 z m -69.37805,-30.28526 c 0.32091,-9.78809 5.18874,7.27716 0,0 z m 5.38693,-5.65322 c -0.0237,-7.60997 2.99025,5.32526 0,0 z m 81.54112,0.0665 c 1.76101,-6.38628 3.64018,4.99622 0,0 z m 41.5,0 c 2.82863,-9.54716 4.70197,2.38639 0,0 z m 12.14903,-1.52778 c -0.53893,-10.95872 10.09286,3.4453 0,0 z m -45.41999,-1.13652 c 4.38558,-7.22174 35.66897,-10.17152 14.89274,-1.84725 -4.8659,1.22446 -9.88551,1.73252 -14.89274,1.84725 z m 98.28466,-73.8357 c -0.60177,-9.04552 3.90832,-4.73304 0.89163,0.47865 z m 5.4863,-22.44098 -0.079,-0.51291 z m -6.88849,-34.55902 c -2.36907,-3.81901 -1.42049,-13.42393 -0.1874,-3.90728 z m 9.04901,-11.04705 c -12.9476,-8.86615 8.98475,-11.19137 0,0 z m -22.78052,-2.90506 c -7.27261,-9.65758 7.41602,3.0074 0,0 z m -12.71333,-6.21456 c -9.88488,-6.18488 8.08144,-6.13627 0,0 z m 10.94032,-1.91512 c -11.64357,-11.08059 14.53811,-7.97754 0,0 z m 22.99779,-1.00574 c -9.95924,-6.75466 8.45532,-5.08121 0,0 z m -16.51354,-7.28331 c -7.0892,-5.60296 -7.39496,-34.83187 -0.28457,-13.11681 1.80165,4.06063 2.95475,9.1074 0.28457,13.11681 z m 9.51575,-0.71095 c -11.54023,-8.89962 7.41921,-4.6033 0,0 z m 4.39301,-5.97723 c 3.3344,-7.67843 0.0105,7.05172 0,0 z M 522.906,158.02166 c -9.92192,-9.90708 5.17609,-2.41802 0,0 z M 269.3144,145.9946 c -2.62323,-8.87618 7.08502,-8.58265 0,0 z m 247.48742,-3.0216 c -8.02019,-3.95653 5.08633,-2.05542 0,0 z m -19.51486,-5.03858 c -23.70559,-10.18625 10.41451,-15.12431 0,0 z m 26.9846,-6.4782 c -15.65792,-21.28408 19.85445,14.63028 0,0 z m 1.36785,-5.37905 c -7.66508,-0.53199 8.07995,5.7944 0,0 z m -14.12234,6.53579 c -8.64939,-0.73417 -2.75562,-6.63245 0,0 z m 22.61325,-3.01728 c -18.1009,-9.52736 6.04299,-8.99061 0,0 z m -15.67256,0.63829 c -14.31098,2.69503 -13.77955,-23.70584 -2.60617,-8.21601 1.31537,2.57468 2.06707,5.3906 2.60617,8.21601 z m -19.58623,-15.45376 c -13.09979,-4.81051 7.65513,-1.74621 0,0 z m 25.50985,-1.81982 c -12.46339,-7.16763 7.61865,-4.65771 0,0 z m -24.12268,-3.57361 c -11.792,-11.156989 9.8405,-2.22912 0,0 z M 340.21887,366.33879 c -5.47858,-3.63411 4.70565,6.83487 0,0 z m 142.55887,-23.9682 c -7.14355,-3.38636 -2.33874,11.43154 0,0 z m 31.4105,-86.5318 c -6.46954,4.81754 7.9092,5.23091 0,0 z m 17.03063,-40.5 c -0.98053,-9.9845 -3.11061,6.8568 0,0 z m -260.03596,-94.75 c -8.91022,-1.02297 3.17273,8.77711 0,0 z M 281.7326,97.019193 c -7.20529,-0.0094 0.87929,7.706597 0,0 z m 213.36925,-4.1804 c -7.93703,-12.694905 -17.50016,-6.574675 -2.5054,-1.018682 0.83513,0.339561 1.67027,0.679121 2.5054,1.018682 z m 21.11702,2.62244 c 0.60774,-5.130499 -4.34715,1.35134 0,0 z m -227.5,-4.62244 c -4.68355,-1.116264 -2.52146,10.409407 0,0 z m 215.99445,-7.00613 c -6.97179,-6.137278 3.11236,5.468879 0,0 z M 354.19844,75.047242 c -7.58906,-7.380412 -6.35328,10.111883 0,0 z m 129.02043,-5.208449 c -2.94164,-5.284669 -1.96344,5.614181 0,0 z M 538.3253,334.48475 c 2.2938,-13.02093 17.89836,-14.47605 3.77763,-2.30835 z M 207.94804,293.23462 c -7.02309,-1.22887 3.68985,-3.89974 0,0 z m -3.91856,-10.67387 c -7.96513,-9.39335 0.40132,-9.3404 0,0 z M 523.67775,62.772262 c 2.11031,-6.022054 2.46702,11.187202 0,0 z m -7.95888,-6.933469 c 2.46758,-4.142235 0.40477,6.044854 0,0 z m -9,-7 c 4.44089,-3.416052 -1.10189,8.60663 0,0 z m -229.073,-14.521471 c 5.54234,-11.65329 1.93926,5.551 0,0 z"
       style="fill:#afafaf" />
    <path
       inkscape:connector-curvature="0"
       id="path3733"
       d="m 365.43345,405.80717 c -48.19788,-2.01144 -99.59266,-20.87011 -126.84941,-62.76804 -8.39416,-4.20758 -24.7616,-36.4392 -7.17437,-16.50502 13.48684,18.24074 -11.89894,-16.24403 -13.6382,-23.08879 -40.35809,-76.62069 -29.04502,-178.64658 32.41996,-240.960562 47.47502,-49.005912 124.06137,-71.5392911 188.7681,-45.647702 70.79104,24.234412 133.64821,85.014964 143.6142,161.433964 1.17724,28.09041 2.52353,57.0715 -4.89662,84.41319 -10.88887,30.34506 -33.59456,54.35008 -53.32592,79.06173 -25.09248,21.12645 -59.596,33.26559 -92.28555,28.16371 -7.97755,-9.81681 23.75188,-9.75927 30.71316,-17.25301 49.3792,-21.63666 85.123,-69.60169 95.27781,-122.06792 10.77148,-61.9925 -18.12465,-132.198716 -75.9177,-160.729774 -0.0387,22.016517 -28.2917,-3.032686 -39.53665,-5.182335 -15.76182,-8.994227 -40.95517,-10.718668 -48.44932,7.374898 -28.31319,4.829343 -63.27054,-2.571177 -84.33181,21.865825 -18.42576,18.019506 -35.70303,37.525016 -45.88462,61.551296 -7.12819,11.28948 -16.69523,46.35467 -5.68686,48.21341 5.78167,-19.16636 3.67733,23.09555 7.4581,29.84413 4.40637,21.12713 24.78779,32.50558 39.55552,46.21333 19.11425,14.66093 41.47811,35.38325 35.86408,62.08852 -1.66344,24.7678 36.64352,24.1421 39.73193,49.34946 1.65383,9.02949 -7.6547,14.30881 -15.42583,14.62969 z m 3.1137,-7.41538 c -6.58049,-14.67605 -6.32127,15.01225 0,0 z m -27.0316,-32.02158 c -3.27388,-12.50682 -6.29706,5.64074 0,0 z M 577.90198,171.65129 c -3.44857,3.61098 7.0181,1.88159 0,0 z M 252.21887,159.77977 c -4.71483,-3.24418 1.806,5.55068 0,0 z m 3,-10.05901 c -5.43914,-1.23987 3.87378,6.11383 0,0 z m 4.55103,-9.34985 c 6.70517,-12.54762 -6.49103,5.83413 0,0 z m 302.44897,-2.40968 c 2.25344,-7.66705 -7.32677,2.87455 0,0 z M 272.12591,119.6756 c -10.59019,0.67709 2.90703,11.50787 0,0 z m 9.05778,5.22893 c 5.67517,-10.75688 -7.00347,4.31024 0,0 z m 2.42872,-27.815737 c -5.00785,-11.833604 -16.96749,24.257437 -3.62303,4.384457 1.23829,-1.43614 2.42197,-2.917402 3.62303,-4.384457 z m 4.0493,6.651217 c 12.37111,-7.320951 -7.18941,-0.25963 0,0 z m 2.76669,-19.227457 c 8.09129,-4.852443 8.7803,-11.519154 0,0 z m 91.29047,-15.67376 c -6.939,-3.460021 -2.89779,10.758702 0,0 z M 377.41124,373.1255 c 13.38103,-9.03563 14.93727,11.56201 0,0 z M 471.66,343.30699 c 3.4967,-10.23404 4.21564,4.01427 0,0 z m -120.74728,-3.10768 c 1.02208,-6.2551 3.03298,5.09768 0,0 z m 108.30615,-11.1702 c -1.3807,-6.98934 5.23063,2.16543 0,0 z m 85,-1.75606 c -1.7688,-11.07494 11.63376,0.66228 0,0 z m -74,-3.43426 c 0.85051,-7.47668 5.7914,-0.50703 0,0 z m 3,-3.44098 c 2.47968,-7.40434 3.13172,6.62948 0,0 z m 28,-1.07505 c 9.08919,-7.64457 21.22242,-31.16195 25.45662,-31.12992 -5.90953,12.1014 -13.45422,24.26002 -25.45662,31.12992 z m 50,-1.42495 c -4.51696,-7.06956 4.96294,0.9785 0,0 z M 488.61188,312.257 c 25.73613,-24.17195 21.6847,-63.59874 41.23695,-91.3939 16.98652,-4.42399 3.5612,28.62439 3.69529,38.94279 -5.48768,22.87907 -19.05819,48.99214 -44.93224,52.45111 z m 2.60699,-20.04212 c -3.2915,-20.01588 27.10248,-5.73401 0,0 z m 35,-81.93511 c 3.19136,-3.88785 -0.52097,6.52348 0,0 z m -1.31667,-4.09098 c -12.04947,-12.30028 13.3637,-10.84433 0,0 z m 27.06667,-17.92696 c -7.51101,-2.50752 5.69283,-4.4621 0,0 z m -35.67105,-10.00637 c 2.68282,-1.98351 -2.93804,6.44882 0,0 z m -255.99773,-1.58488 c -7.40351,-9.86065 5.47003,-6.95388 0,0 z M 526.23504,146.869 c -8.72024,-7.72035 2.24464,-5.8774 0,0 z M 494.053,131.55417 c -10.44433,-14.37575 8.93483,12.58116 0,0 z m 32.83254,3.61795 c -8.43775,-1.50524 4.39304,-2.74289 0,0 z m 6,-8 c -8.43775,-1.50524 4.39304,-2.74289 0,0 z m -24.4346,-20.33333 c 4.56857,-4.01584 0.86992,10.76253 0,0 z m 2.74787,-1.52417 c -2.51744,-8.240758 5.05071,5.98777 0,0 z m 3.51451,-6.481957 c -2.94051,-8.490005 8.41983,11.249717 0,0 z m -9.92501,-1.91714 c -6.18955,-8.370219 5.37552,3.102567 0,0 z m -6.97748,-1.57673 c -3.11291,-9.054373 5.43293,-0.813164 2.00608,1.645889 z m 7.46786,-6.93632 c -3.90533,-9.003621 6.66848,7.782675 0,0 z m -7.55982,-6.56368 c 5.634,-0.566033 0.65194,10.321363 0,0 z M 345.66,81.406113 c 9.43344,-15.588722 16.3875,10.579361 0,0 z m 91.05887,-11.484076 c -10.41837,-9.162 21.82167,8.929434 0,0 z m -34,-62.083244 c 3.65972,-4.3199484 1.5715,5.680312 0,0 z"
       style="fill:#8f8f8f" />
    <path
       inkscape:connector-curvature="0"
       id="path3731"
       d="m 371.71657,404.83507 c -14.94779,-21.49609 -43.5175,8.37063 -61.06778,-10.15737 -22.69854,-8.37037 -45.08983,-18.95027 -60.75654,-38.14428 -9.90908,-10.43528 -24.98603,-28.16945 -17.0947,-32.4341 -13.19416,-20.07877 -28.22739,-39.78829 -32.03842,-64.26137 -28.84697,-99.5774 31.58867,-218.527814 132.77186,-247.034581 91.51976,-23.587721 193.12496,31.200968 231.32269,116.024881 16.33417,37.99758 19.08096,81.24719 11.95133,121.69469 -5.43751,28.04502 -22.92651,51.49694 -39.43763,73.97736 -24.81998,29.61427 -65.77908,52.03093 -104.82136,41.82165 14.98555,-7.78948 32.8396,-11.99819 47.63271,-21.38558 34.66872,-18.84381 59.09142,-52.81663 72.58066,-89.23237 24.13336,-70.89616 -6.27693,-161.2158 -77.50285,-191.728596 -12.89818,-7.935877 5.21535,15.729638 -11.43865,6.785295 -25.80835,-7.208493 -54.01005,-22.002726 -77.68198,-2.779152 -26.81703,3.023181 -54.93986,7.529367 -76.27885,25.605993 -18.90416,18.66289 -40.20731,37.15898 -49.81385,62.67832 -12.65583,32.58638 -6.07905,71.61834 17.69258,97.41393 18.12679,26.99463 56.72375,38.34946 63.68521,72.93566 -6.8224,20.91684 3.7421,41.97026 25.2866,47.312 12.4914,5.91712 23.09302,23.53526 5.00897,30.90762 z m -13.9977,-20.99628 c -4.44087,-3.41608 1.10186,8.60663 0,0 z m -14.67394,-16.91556 c -5.2484,-14.72321 -8.87325,8.49569 0,0 z M 569.62826,167.01081 c -0.25396,-14.60302 -4.17425,8.6747 0,0 z m -316.87757,-5.25104 c 2.90075,-11.78993 11.91943,-23.0254 12.41955,-34.68717 -4.74839,11.11563 -17.3533,21.42333 -12.41955,34.68717 z m 312.42696,-17.67098 c 1.17482,-9.95626 -19.78079,-29.11735 -7.56196,-9.58974 2.34784,3.32883 4.91957,6.49239 7.56196,9.58974 z M 266.17119,118.47974 c 7.32948,-7.5927 30.48648,-28.611628 20.00478,-33.442423 -11.31931,4.886395 -28.17052,33.570443 -21.63268,35.529443 0.54263,-0.69567 1.08527,-1.39135 1.6279,-2.08702 z m 13.04768,-24.100477 c 0.64619,-11.301804 12.67395,3.112883 0,0 z m 13.83481,5.25145 c -16.36703,-5.555291 -1.06885,18.815297 0,0 z m 250.76936,2.478907 c -4.6551,3.0232 5.91331,1.40167 0,0 z M 300.71887,99.838793 c -2.46756,-4.142246 -0.40479,6.044837 0,0 z m 6.9223,-12.65811 c -9.46047,-2.256493 -4.83023,10.750147 0,0 z m 53.30687,-22.946057 c -1.15264,-5.26399 -3.07522,3.611923 0,0 z m 4,-1 c -1.15264,-5.26399 -3.07522,3.611923 0,0 z m 92.27083,-7.315466 c -5.92892,-10.169975 -13.14074,5.731621 0,0 z m -79.5,315.91963 c 2.46757,-4.14224 0.40478,6.04484 0,0 z m -31.25,-15.2244 c -2.05227,-8.04358 7.6759,6.78859 0,0 z m 161.75,-44.15316 c -0.60776,-5.13049 4.34714,1.35134 0,0 z m -17.35292,-1.86042 c 21.37153,-17.20175 19.19431,-47.45016 31.29515,-69.99104 21.78226,-5.12742 5.7135,32.2717 -0.50946,42.45696 -7.11164,12.01431 -17.70226,22.30245 -30.78569,27.53408 z m 24.39392,-6.8196 c 8.36847,-10.7606 -2.71901,7.56399 0,0 z m -20.041,-13.95165 c -1.9363,-16.83843 18.47266,-3.91659 0,0 z m 70,-1.21747 c -4.62582,-7.25984 5.8437,-0.19735 0,0 z m -30.87489,-68.53953 c -9.47952,-8.61297 10.19232,-5.77149 0,0 z M 258.21887,205.77977 c 4.64846,-3.60005 -2.86668,9.15926 0,0 z m 267.19495,-3.44098 c 2.26021,-3.82206 -2.05347,9.52776 0,0 z m 58,-4 c 2.26021,-3.82206 -2.05347,9.52776 0,0 z m -324.19495,-12.44098 -0.079,-0.51291 z m 234.70292,-55.71482 c -6.91637,-13.33079 10.57466,12.11687 0,0 z m -215.70292,2.11454 c -0.99918,-10.38942 11.3855,-1.16363 0,0 z m 213.25,-47.700337 c -13.6148,-3.882697 7.42499,-2.305303 0,0 z m -145.8191,-3.8702 c 7.92707,-13.917268 12.76798,11.806084 0,0 z m 51.0691,-8.8882 c 7.62706,-6.61838 8.17562,8.698868 0,0 z"
       style="fill:#6f6f6f" />
    <path
       inkscape:connector-curvature="0"
       id="path3729"
       d="m 372.67775,403.77226 c 3.57484,-8.40548 4.60136,7.2553 0,0 z m -28.95888,-2.07116 c -32.38032,-12.51182 -73.34581,-15.98916 -93.32646,-48.29433 -16.28985,-30.00815 -38.33532,-57.26382 -47.67569,-90.7095 -31.18226,-95.58125 23.79863,-209.385058 117.91921,-244.618432 46.5412,-18.79408003 99.11867,-9.4977924 143.80185,9.877902 44.4407,21.142141 77.77128,61.768114 93.80988,107.88524 18.87158,41.62439 29.8198,92.32349 8.1777,135.08268 -15.52521,47.43605 -55.2533,92.13789 -107.47857,96.22009 -7.71907,1.69601 -35.12127,-2.29974 -12.89803,-5.70094 65.34465,-19.66201 113.33525,-83.50246 116.25537,-151.3743 9.26555,-71.37691 -45.5232,-139.879648 -112.92256,-158.271796 -11.53547,-3.802627 31.64102,19.855213 6.40275,16.125308 -28.85183,-14.187824 -62.52896,-10.961937 -93.20093,-5.696302 -15.11252,3.430127 31.57863,-1.370169 13.21029,6.323624 -30.53206,-0.994455 -58.35636,15.568671 -78.75315,37.216626 -16.47153,14.84966 -32.91644,31.44384 -38.89983,53.58375 -13.21757,42.87932 2.5194,94.73931 42.06396,118.15969 20.19692,15.156 43.59882,36.08756 39.85085,64.04236 -10.45542,24.59454 29.34833,24.71008 33.22741,44.85609 -3.03923,12.09039 -20.49325,10.33916 -29.56405,15.29224 z m 18.21523,-10.49297 c -6.11087,-10.01359 -6.71625,10.20884 0,0 z m -4.64949,-5.40452 c 5.13437,-11.69886 -8.90154,8.1847 0,0 z m -11.06574,-15.89339 c -5.67201,-22.64473 -22.78115,10.3105 0,0 z m -94.88895,-183.3876 c -3.87888,-39.18672 26.24844,-70.0087 51.44414,-95.881224 21.74111,-22.148952 -36.16456,26.457254 -15.96964,4.801745 11.92198,-3.851513 13.82702,-30.393947 0.45079,-11.043125 -18.0814,21.275004 -35.10663,45.182134 -40.22659,73.208824 1.24192,9.6349 -0.69892,20.0726 4.3013,28.91378 z m -4.49105,0.86406 c 7.27261,-9.65758 -7.41602,3.0074 0,0 z m -0.12,-5.54789 c -2.46757,-4.14224 -0.40478,6.04484 0,0 z M 282.6367,79.910953 c -6.05662,1.821666 -0.70035,10.865054 0,0 z m 35.08217,318.927837 c 4.44087,-3.41608 -1.10186,8.60663 0,0 z m 60.52896,0.0391 c -2.33094,-8.72115 4.88432,6.34048 0,0 z M 235.80297,337.19735 c 6.18736,0.39403 -2.94525,9.89367 0,0 z m -5.68987,-5.64452 c -12.73195,-6.46742 -4.72888,-19.71101 0,0 z m 283.10577,-16.269 c 5.25608,-19.26849 18.53675,-9.1631 0,0 z m -12,-10.50406 c 3.88338,-16.74185 12.18729,-48.33378 26.38341,-50.866 3.23928,19.80871 -12.16145,38.70146 -26.38341,50.866 z m 10,-12.94098 c -3.11289,-5.92108 -0.90655,8.1441 0,0 z m 8,-13.14293 c -9.81516,-0.96889 4.39623,8.91817 0,0 z m 50,0.64293 c 0.88826,-7.05753 2.33467,5.00061 0,0 z m -43.98469,-52.03571 c -3.48449,-16.067 5.24207,1.76374 0,0 z m 32.5274,-53.39519 c -2.41901,-6.71093 4.39353,3.45387 0,0 z m -63.27366,-44.20113 c -1.80111,-9.5422 6.47237,13.7944 0,0 z m 65.09243,-0.006 c -12.36102,-2.63489 -4.99543,-31.39603 -1.19197,-9.44363 0.39733,3.14788 0.79465,6.29575 1.19197,9.44363 z M 347.89654,81.183123 c 2.62772,-8.538562 5.98275,6.887635 0,0 z m 20.57233,-9.424429 c 3.17976,-8.605191 4.63156,4.476129 0,0 z m 143.731,-11.442793 c 6.34778,0.556376 -1.59305,8.124284 0,0 z"
       style="fill:#4f4f4f" />
    <path
       inkscape:connector-curvature="0"
       id="path3727"
       d="M 342.71887,400.70115 C 298.90555,389.40583 251.66015,367.14422 233.4661,322.74892 173.51073,245.06057 186.68253,124.2094 258.29009,58.26711 314.1859,1.3276275 409.44447,-5.614844 476.22342,35.942744 506.073,52.766982 534.20958,78.053974 542.99713,112.37766 517.37015,88.013867 489.19351,64.840692 456.05728,51.673379 c -19.11692,-0.643446 11.96694,16.458841 -8.28958,12.436689 -25.87394,-3.0327 -52.82254,-17.945731 -78.35721,-4.569283 -22.38836,12.011313 -48.25308,10.835002 -72.22545,16.977464 -27.07728,12.742019 -43.46178,42.000801 -49.31326,70.529581 -9.92586,47.61233 10.26719,98.77523 48.70003,128.18027 19.05929,15.45228 43.69342,32.86025 43.49602,60.07743 -9.78352,18.82771 -3.68429,35.80753 18.03375,38.00065 17.08572,8.34262 4.34013,14.46075 -4.58007,17.98788 -0.53609,6.48595 -2.55586,17.29102 -10.80264,9.40709 z M 281.00639,85.791293 c 18.13614,-7.281537 0.18048,-11.474279 -4.33394,-1.320961 l 1.49643,0.771106 z m 43.21248,-14.043944 c 3.77447,-10.733801 -9.64396,3.820486 0,0 z m 39.72917,-61.512723 c -1.15264,-5.2639905 -3.07522,3.611923 0,0 z m 6.27083,-0.395833 c -4.07624,-4.7285714 -1.78713,6.003697 0,0 z m -94.5,368.999997 c 2.46757,-4.14224 0.40478,6.04484 0,0 z m 157,-12.92918 c 74.59425,-15.48814 129.6993,-87.49732 132.65978,-162.47191 -0.11853,-10.93344 13.12588,-17.80829 10.68448,-2.46343 3.41672,37.49906 -8.58361,74.90357 -28.32601,106.43205 -24.59243,37.5728 -69.12513,64.55338 -115.01825,58.50329 z m -96,-5.65496 c 5.85348,-3.51955 3.30344,7.58548 0,0 z M 226.18308,325.67444 c 1.64642,-5.22439 2.21576,13.19916 0,0 z m 291.03579,-14.59076 c -3.30769,-6.78497 5.94034,-0.0321 0,0 z m -13,-7.68804 c -0.89285,-9.36606 11.39689,-4.86298 0,0 z m 1,-11.82563 c 4.87876,-10.31723 12.20358,-36.63823 21.40144,-32.51401 -1.54734,13.60952 -11.95046,23.64081 -21.40144,32.51401 z m 58.07895,-89.31455 c 2.68282,-1.98351 -2.93804,6.44882 0,0 z m -1.93799,-48.00112 c -7.16337,-14.1291 2.99069,-2.72644 0.66789,0.61551 z m -304.12565,5.89347 c -5.45304,-5.90393 5.54314,-2.03106 0,0 z m 2.03016,-5.80902 c -3.17431,-7.1228 8.30397,-5.4242 0,0 z m 5.29932,-16.47393 c 5.10599,-14.52712 12.70402,-12.36914 0,0 z m -11.32948,-6.21705 c -4.76521,-8.15281 4.68887,-1.4305 0,0 z m 300.54898,-0.51589 c 2.6115,-3.15282 -0.86659,8.50268 0,0 z M 294.21887,108.0131 c 2.82177,-20.850264 21.74743,8.83009 0,0 z m 12.03327,-15.802337 c 11.95461,-18.257999 41.00852,-24.214497 58.22846,-24.153925 -20.81671,4.548666 -40.6095,11.826234 -58.22846,24.153925 z"
       style="fill:#2c2c2c" />
    <path
       inkscape:connector-curvature="0"
       id="path3725"
       d="M 337.71887,398.31924 C 286.4564,387.72275 243.7679,349.94531 221.35518,303.38271 167.02277,211.0785 205.05407,76.562838 301.90306,29.182266 379.4959,-8.8624428 486.25748,15.271929 531.66029,91.206557 535.30845,103.90754 513.89935,82.349687 508.21618,80.203421 487.32799,66.485235 465.61234,45.411204 438.43993,50.777619 c -4.58441,5.169041 26.7546,13.107916 7.30956,11.12952 -25.07905,-3.716415 -51.81369,-14.447455 -76.25269,-2.03873 -29.14448,8.677874 -63.57986,0.380037 -88.81577,20.709606 -17.14702,24.135655 -35.81474,49.311075 -37.74479,80.007695 -4.61871,33.20195 7.37081,66.82234 29.47711,91.59264 17.64212,22.60041 41.71901,39.08529 60.95135,59.9633 12.51669,18.6559 -14.96151,49.95891 9.8499,61.56515 8.71714,1.71266 31.16969,6.6232 10.68155,11.8163 -11.14979,1.57022 -1.18342,24.9547 -16.17728,12.79614 z m -9.94615,-6.56758 c -4.72847,-16.9082 -14.64148,10.31262 0,0 z m -64.925,-287.16287 c -3.66239,-4.626442 -1.83051,11.18048 0,0 z m 179.18365,259.56689 c 1.84901,-6.58896 3.40877,3.38596 0,0 z m 5.6875,-1.48547 c 67.45938,-19.19227 112.28089,-86.34611 119.25082,-154.02978 0.13537,-11.30375 9.95192,-18.02638 7.74138,-2.74905 2.73218,51.80384 -20.03837,105.01939 -61.70242,136.46264 -18.64532,13.89045 -41.89938,22.09945 -65.28978,20.31619 z m 66.94234,-86.33142 c -7.24358,-12.65331 22.43108,-29.84862 8.86396,-8.74254 -2.62632,3.22846 -5.6989,6.05608 -8.86396,8.74254 z m 30.72754,-158.01116 c -10.54633,-7.94509 6.97683,-0.38884 0,0 z M 298.37972,105.16757 c 7.58136,-9.849636 -2.34404,8.81248 0,0 z m 15.22995,-19.152087 c 2.89154,-6.958087 7.43213,0.09209 0,0 z m -11.3908,-2.15364 c 1.48461,-18.5328 22.86904,0.24201 0,0 z m 29.5,-7.91666 c 2.59474,-10.96987 8.71219,0.5385 0,0 z m 31.59625,-8.046907 c 8.84134,-10.235243 13.39226,7.730614 0,0 z"
       style="fill:#1f1f1f" />
  </g>
  <path
     style="opacity:1;fill:#5c88d9;fill-opacity:1;stroke:#84a6e3;stroke-width:2.70000005;stroke-miterlimit:4;stroke-dasharray:none;stroke-opacity:1;paint-order:stroke markers fill"
     d="m 414.53516,95.416016 c -11.14266,1.560969 -22.67901,-1.145269 -33.70899,1.097656 -8.58539,2.890262 -14.28836,11.746448 -15.00781,20.548828 -17.54924,0.35324 -35.42929,-0.92186 -52.7832,0.6875 -2.54859,2.64027 -9.75833,4.49239 -7.99024,9.23633 1.14955,2.33323 5.87003,-0.21798 4.23047,3.48828 -0.35225,12.60084 -1.1938,25.0381 -2.92383,37.41016 -0.20747,8.41949 3.51192,19.28769 -4.57617,25.26367 -5.47504,8.97385 -11.8337,17.82524 -18.28025,26.31803 -3.40545,3.26357 -3.07842,5.74892 1.55659,7.15227 10.74498,5.9378 23.673,12.82561 26.51663,25.90665 20.97198,1.78795 42.64322,-2.13065 63.03125,3.13477 8.5398,11.83541 4.63971,27.68353 8.58203,41.15234 1.0992,19.39372 4.60574,38.6031 5.7168,57.82227 6.55577,11.84755 25.19481,8.28413 30.61914,-2.78711 3.78588,-6.69287 -0.64553,-14.07365 0.59668,-21.14447 -0.0991,-24.5596 -1.10364,-49.35398 2.65722,-73.56257 6.73093,-8.34754 18.64159,-4.18303 27.6504,-3.83789 5.84625,0.50303 11.55055,-0.46792 17.36718,0.002 6.19735,-0.25539 12.86524,-3.35953 15.54883,-8.95117 3.59834,-0.51099 3.51468,-6.57928 -0.32812,-5.90625 -2.6668,-5.67577 -6.41863,-11.19067 -5.73633,-17.8418 0.3354,-13.25969 7.06717,-26.02535 4.55273,-39.4668 -3.92417,-2.35165 -10.15141,-1.05614 -13.31445,-1.67773 4.78272,-4.46261 8.52101,-10.74098 14.87305,-13.6875 6.58982,-4.88762 16.5201,-3.46302 21.50976,-10.5586 4.06954,-6.55832 -3.28779,-12.54306 -7.4375,-16.73046 -4.92334,-3.53175 -5.72586,-9.47993 -8.25586,-14.47852 -6.30555,-10.51923 -20.44483,-9.76453 -30.87109,-7.53125 -13.53084,3.61243 -27.8821,1.89924 -41.62305,2.17383 1.21774,-6.76954 7.70466,-13.83136 4.17774,-20.806643 -1.41533,-1.996704 -4.04807,-2.521691 -6.34961,-2.425781 z m -15.03711,11.148434 c 3.51377,-0.51505 9.25006,1.05464 6.82812,5.8125 -3.88447,8.74876 -17.17474,8.70262 -24.00195,3.81641 0.59353,-2.69863 0.42309,-6.50652 1.06836,-8.65234 5.41465,0.16921 10.74305,-0.91008 16.10547,-0.97657 z m 63.23828,20.02149 c 10.41288,-0.62274 14.49575,10.36262 18.39648,17.88476 2.01365,3.76308 4.31544,7.5155 7.67188,10.23633 -8.55245,4.91241 -17.88422,9.02061 -25.32422,15.47656 -12.49707,2.0616 -22.8667,-8.9344 -35.39649,-7.61523 -15.16201,-1.36515 -28.99269,6.81616 -43.64698,8.5711 -12.92439,2.21782 -26.36279,3.51118 -38.90966,7.81562 -7.52514,0.80866 -17.03086,3.98164 -23.42578,-1.51172 -2.27914,-5.13503 0.60372,-11.15038 -0.14379,-16.5513 0.56647,-10.78735 1.87199,-21.53236 3.78832,-32.16159 12.81987,-1.75317 26.12854,0.65452 39.21153,-0.0325 29.03242,0.90717 58.51229,3.65483 87.30384,-0.98763 3.44833,-0.67137 6.95055,-1.2276 10.47487,-1.12444 z m -52.57617,47.46679 c -0.58176,3.68212 -0.77378,9.97476 -6.10547,8.15625 -9.1224,0 -18.24479,0 -27.36719,0 11.22309,-2.07586 22.82836,-5.5469 33.47266,-8.15625 z m 15.61523,0.94532 c 7.4123,1.79189 14.84236,3.61975 22.00781,6.25586 -7.77527,0.54605 -16.48715,3.72153 -23.56054,-0.78125 0.63822,-1.45062 -1.52832,-7.29822 1.55273,-5.47461 z m 32.54492,15.93164 c 4.00116,-0.72475 10.52789,0.0105 9.47852,5.55078 -1.22974,7.62938 -5.42335,14.57652 -5.68555,22.40625 -1.87947,7.58633 3.80586,15.1461 1.83594,22.47656 -5.20895,1.22002 -10.95605,-0.74416 -16.40234,0.01 -12.01545,-0.21447 -23.73258,2.87631 -35.52122,4.25192 -17.18513,0.81286 -33.91445,-2.49637 -50.92605,-4.73239 -12.24451,-0.73427 -24.90894,3.65745 -36.49414,-0.86719 -3.30184,-12.28591 -17.37498,-17.13951 -26.01953,-23.41992 6.74404,-5.86029 9.23089,-16.07356 15.18945,-21.74024 4.38817,1.82456 9.21723,-1.77854 13.88281,-1 23.0732,-0.9465 46.33669,0.10458 69.49793,-0.3052 17.51886,0.13668 35.15338,0.6164 52.46395,-2.32646 2.89424,-0.22254 5.79838,-0.28438 8.70023,-0.30388 z m -60.93945,65.63086 c 3.43441,0.0931 6.96551,0.84289 10.35937,0.53711 -3.87194,29.75551 -2.86742,60.23035 -2.875,89.87304 -6.27674,-11.03208 0.49064,-24.60697 -4.85546,-36 -1.68112,-17.24378 -2.70126,-34.7325 -6.97071,-51.53906 -0.078,-2.49159 2.29446,-3.02246 4.3418,-2.87109 z"
     id="path5734"
     inkscape:connector-curvature="0" />
</svg>
